<mxfile host="Electron" agent="Mozilla/5.0 (Windows NT 10.0; Win64; x64) AppleWebKit/537.36 (KHTML, like Gecko) draw.io/24.7.17 Chrome/128.0.6613.36 Electron/32.0.1 Safari/537.36" version="24.7.17">
  <diagram name="Page-1" id="uPoL477koQHRy4HOxxIn">
    <mxGraphModel dx="7985" dy="1393" grid="1" gridSize="10" guides="1" tooltips="1" connect="1" arrows="1" fold="1" page="1" pageScale="1" pageWidth="6000" pageHeight="2000" math="0" shadow="0">
      <root>
        <mxCell id="0" />
        <mxCell id="1" parent="0" />
        <mxCell id="ch1ULrI9wvM1NAQLew_m-2" style="edgeStyle=elbowEdgeStyle;rounded=0;html=1;labelBackgroundColor=none;startArrow=none;startFill=0;startSize=8;endArrow=none;endFill=0;endSize=16;fontFamily=Verdana;fontSize=12;" parent="1" edge="1">
          <mxGeometry relative="1" as="geometry">
            <mxPoint x="-4040" y="1150" as="sourcePoint" />
            <mxPoint x="-4040" y="1147" as="targetPoint" />
          </mxGeometry>
        </mxCell>
        <mxCell id="ch1ULrI9wvM1NAQLew_m-3" value="&lt;font style=&quot;font-size: 63px;&quot;&gt;1-port instruction ROM&lt;/font&gt;" style="verticalLabelPosition=middle;verticalAlign=middle;html=1;shape=mxgraph.basic.rect;fillColor2=none;strokeWidth=1;size=20;indent=0;fontFamily=Helvetica;fontSize=21;labelPosition=center;align=center;whiteSpace=wrap;fillColor=#e1d5e7;strokeColor=#9673a6;" parent="1" vertex="1">
          <mxGeometry x="-4540" y="1210" width="440" height="1170" as="geometry" />
        </mxCell>
        <mxCell id="ch1ULrI9wvM1NAQLew_m-5" value="" style="endArrow=classic;html=1;rounded=0;fontFamily=Helvetica;fontSize=36;entryX=0.002;entryY=0.486;entryDx=0;entryDy=0;entryPerimeter=0;" parent="1" edge="1">
          <mxGeometry relative="1" as="geometry">
            <mxPoint x="-4112" y="1800" as="sourcePoint" />
            <mxPoint x="-3981.7599999999998" y="1799.3600000000001" as="targetPoint" />
          </mxGeometry>
        </mxCell>
        <mxCell id="ch1ULrI9wvM1NAQLew_m-6" value="Inst A" style="edgeLabel;resizable=0;html=1;align=center;verticalAlign=middle;fontFamily=Helvetica;fontSize=36;" parent="ch1ULrI9wvM1NAQLew_m-5" connectable="0" vertex="1">
          <mxGeometry relative="1" as="geometry" />
        </mxCell>
        <mxCell id="ch1ULrI9wvM1NAQLew_m-9" value="CLOCK" style="ellipse;whiteSpace=wrap;html=1;align=center;newEdgeStyle={&quot;edgeStyle&quot;:&quot;entityRelationEdgeStyle&quot;,&quot;startArrow&quot;:&quot;none&quot;,&quot;endArrow&quot;:&quot;none&quot;,&quot;segment&quot;:10,&quot;curved&quot;:1};treeFolding=1;treeMoving=1;fontFamily=Helvetica;fontSize=36;" parent="1" vertex="1">
          <mxGeometry x="-3280" y="1140" width="180" height="150" as="geometry" />
        </mxCell>
        <mxCell id="ch1ULrI9wvM1NAQLew_m-10" value="&lt;font style=&quot;font-size: 38px;&quot;&gt;P&lt;br&gt;i&lt;br&gt;p&lt;br&gt;e&lt;br&gt;l&lt;br&gt;i&lt;br&gt;n&lt;br&gt;e&lt;br&gt;&lt;br&gt;B&lt;br&gt;u&lt;br&gt;f&lt;br&gt;f&lt;br&gt;e&lt;br&gt;r&lt;br&gt;&lt;/font&gt;" style="rounded=0;whiteSpace=wrap;html=1;fillColor=#f8cecc;strokeColor=#b85450;" parent="1" vertex="1">
          <mxGeometry x="-3980" y="1430" width="120" height="760" as="geometry" />
        </mxCell>
        <mxCell id="ch1ULrI9wvM1NAQLew_m-11" value="" style="endArrow=classic;html=1;rounded=0;fontFamily=Helvetica;fontSize=36;entryX=0.002;entryY=0.486;entryDx=0;entryDy=0;entryPerimeter=0;" parent="1" edge="1">
          <mxGeometry relative="1" as="geometry">
            <mxPoint x="-3860" y="1800.6399999999999" as="sourcePoint" />
            <mxPoint x="-3719.76" y="1800" as="targetPoint" />
          </mxGeometry>
        </mxCell>
        <mxCell id="ch1ULrI9wvM1NAQLew_m-12" value="Inst A" style="edgeLabel;resizable=0;html=1;align=center;verticalAlign=middle;fontFamily=Helvetica;fontSize=36;" parent="ch1ULrI9wvM1NAQLew_m-11" connectable="0" vertex="1">
          <mxGeometry relative="1" as="geometry" />
        </mxCell>
        <mxCell id="ch1ULrI9wvM1NAQLew_m-15" value="&lt;div style=&quot;&quot;&gt;&lt;span style=&quot;background-color: initial;&quot;&gt;&lt;font style=&quot;font-size: 56px;&quot;&gt;Rename&amp;nbsp;&lt;/font&gt;&lt;/span&gt;&lt;/div&gt;" style="verticalLabelPosition=middle;verticalAlign=middle;html=1;shape=mxgraph.basic.rect;fillColor2=none;strokeWidth=1;size=20;indent=5;fontFamily=Helvetica;fontSize=36;labelPosition=center;align=center;whiteSpace=wrap;" parent="1" vertex="1">
          <mxGeometry x="-2410" y="1410" width="430" height="460" as="geometry" />
        </mxCell>
        <mxCell id="ch1ULrI9wvM1NAQLew_m-16" value="Free List (available physical registers)" style="verticalLabelPosition=middle;verticalAlign=middle;html=1;shape=mxgraph.basic.rect;fillColor2=none;strokeWidth=1;size=20;indent=0;fontFamily=Helvetica;fontSize=21;labelPosition=center;align=center;whiteSpace=wrap;fillColor=#dae8fc;strokeColor=#6c8ebf;" parent="1" vertex="1">
          <mxGeometry x="-2358" y="1720" width="338" height="93" as="geometry" />
        </mxCell>
        <mxCell id="ch1ULrI9wvM1NAQLew_m-17" value="Register Alias Table&lt;br&gt;(RAT)" style="verticalLabelPosition=middle;verticalAlign=middle;html=1;shape=mxgraph.basic.rect;fillColor2=none;strokeWidth=1;size=20;indent=0;fontFamily=Helvetica;fontSize=21;labelPosition=center;align=center;whiteSpace=wrap;fillColor=#dae8fc;strokeColor=#6c8ebf;" parent="1" vertex="1">
          <mxGeometry x="-2340" y="1470" width="287" height="96" as="geometry" />
        </mxCell>
        <mxCell id="ch1ULrI9wvM1NAQLew_m-18" value="" style="endArrow=classic;html=1;rounded=0;fontFamily=Helvetica;fontSize=36;entryX=0.002;entryY=0.486;entryDx=0;entryDy=0;entryPerimeter=0;strokeWidth=7;" parent="1" edge="1">
          <mxGeometry relative="1" as="geometry">
            <mxPoint x="-3070" y="1800.6399999999999" as="sourcePoint" />
            <mxPoint x="-2929.76" y="1800" as="targetPoint" />
          </mxGeometry>
        </mxCell>
        <mxCell id="ch1ULrI9wvM1NAQLew_m-19" value="decoded &lt;br&gt;insts" style="edgeLabel;html=1;align=center;verticalAlign=middle;resizable=0;points=[];fontSize=38;labelBackgroundColor=none;" parent="ch1ULrI9wvM1NAQLew_m-18" connectable="0" vertex="1">
          <mxGeometry x="-0.2689" y="4" relative="1" as="geometry">
            <mxPoint x="17" y="-60" as="offset" />
          </mxGeometry>
        </mxCell>
        <mxCell id="ch1ULrI9wvM1NAQLew_m-20" value="&lt;font style=&quot;font-size: 38px;&quot;&gt;P&lt;br&gt;i&lt;br&gt;p&lt;br&gt;e&lt;br&gt;l&lt;br&gt;i&lt;br&gt;n&lt;br&gt;e&lt;br&gt;&lt;br&gt;B&lt;br&gt;u&lt;br&gt;f&lt;br&gt;f&lt;br&gt;e&lt;br&gt;r&lt;br&gt;&lt;/font&gt;" style="rounded=0;whiteSpace=wrap;html=1;fillColor=#f8cecc;strokeColor=#b85450;" parent="1" vertex="1">
          <mxGeometry x="-2860" y="1430" width="120" height="760" as="geometry" />
        </mxCell>
        <mxCell id="ch1ULrI9wvM1NAQLew_m-88" value="" style="endArrow=classic;html=1;rounded=0;fontFamily=Helvetica;fontSize=36;strokeWidth=7;" parent="1" edge="1">
          <mxGeometry relative="1" as="geometry">
            <mxPoint x="-2680" y="1580" as="sourcePoint" />
            <mxPoint x="-2460" y="1580" as="targetPoint" />
            <Array as="points">
              <mxPoint x="-2660" y="1580" />
            </Array>
          </mxGeometry>
        </mxCell>
        <mxCell id="ch1ULrI9wvM1NAQLew_m-89" value="Registers&lt;br&gt;(Src, Dst)" style="edgeLabel;html=1;align=center;verticalAlign=middle;resizable=0;points=[];fontSize=38;labelBackgroundColor=none;" parent="ch1ULrI9wvM1NAQLew_m-88" connectable="0" vertex="1">
          <mxGeometry x="-0.2689" y="4" relative="1" as="geometry">
            <mxPoint x="20" y="-60" as="offset" />
          </mxGeometry>
        </mxCell>
        <mxCell id="ch1ULrI9wvM1NAQLew_m-93" value="&lt;div style=&quot;&quot;&gt;&lt;br&gt;&lt;/div&gt;&lt;div style=&quot;&quot;&gt;&lt;span style=&quot;font-size: 56px; background-color: initial;&quot;&gt;Unified Issue Queue&lt;/span&gt;&lt;br&gt;&lt;/div&gt;" style="verticalLabelPosition=middle;verticalAlign=middle;html=1;shape=mxgraph.basic.rect;fillColor2=none;strokeWidth=1;size=20;indent=5;fontFamily=Helvetica;fontSize=36;labelPosition=center;align=center;whiteSpace=wrap;fillColor=#f8cecc;strokeColor=#b85450;" parent="1" vertex="1">
          <mxGeometry x="-1370" y="1430" width="850" height="690" as="geometry" />
        </mxCell>
        <mxCell id="ch1ULrI9wvM1NAQLew_m-94" value="&lt;div style=&quot;&quot;&gt;&lt;span style=&quot;background-color: initial;&quot;&gt;&lt;font style=&quot;font-size: 56px;&quot;&gt;Load Store Queue&lt;br&gt;(Deallocate: Retirement)&lt;/font&gt;&lt;/span&gt;&lt;/div&gt;" style="verticalLabelPosition=middle;verticalAlign=middle;html=1;shape=mxgraph.basic.rect;fillColor2=none;strokeWidth=1;size=20;indent=5;fontFamily=Helvetica;fontSize=36;labelPosition=center;align=center;whiteSpace=wrap;fillColor=#f8cecc;strokeColor=#b85450;" parent="1" vertex="1">
          <mxGeometry x="-1370" y="2450" width="850" height="160" as="geometry" />
        </mxCell>
        <mxCell id="ch1ULrI9wvM1NAQLew_m-96" value="&lt;span style=&quot;font-size: 56px;&quot;&gt;Decode Logic&lt;/span&gt;" style="ellipse;shape=cloud;whiteSpace=wrap;html=1;" parent="1" vertex="1">
          <mxGeometry x="-3740" y="1530" width="640" height="500" as="geometry" />
        </mxCell>
        <mxCell id="ch1ULrI9wvM1NAQLew_m-97" value="" style="endArrow=classic;html=1;rounded=0;fontFamily=Helvetica;fontSize=36;exitX=0.995;exitY=0.524;exitDx=0;exitDy=0;exitPerimeter=0;strokeColor=#000000;strokeWidth=7;" parent="1" edge="1">
          <mxGeometry relative="1" as="geometry">
            <mxPoint x="-1909" y="1580" as="sourcePoint" />
            <mxPoint x="-1449" y="1580" as="targetPoint" />
          </mxGeometry>
        </mxCell>
        <mxCell id="ch1ULrI9wvM1NAQLew_m-105" value="&lt;div style=&quot;&quot;&gt;&lt;span style=&quot;background-color: initial;&quot;&gt;&lt;font style=&quot;font-size: 56px;&quot;&gt;Reorder Buffer&lt;br&gt;(ROB)&lt;/font&gt;&lt;/span&gt;&lt;/div&gt;" style="verticalLabelPosition=middle;verticalAlign=middle;html=1;shape=mxgraph.basic.rect;fillColor2=none;strokeWidth=1;size=20;indent=5;fontFamily=Helvetica;fontSize=36;labelPosition=center;align=center;whiteSpace=wrap;" parent="1" vertex="1">
          <mxGeometry x="-2411.5" y="930" width="430" height="220" as="geometry" />
        </mxCell>
        <mxCell id="ch1ULrI9wvM1NAQLew_m-110" value="&lt;span style=&quot;font-size: 56px;&quot;&gt;Writeback&lt;br&gt;Logic&lt;/span&gt;" style="ellipse;shape=cloud;whiteSpace=wrap;html=1;" parent="1" vertex="1">
          <mxGeometry x="-1800" y="870" width="320" height="290" as="geometry" />
        </mxCell>
        <mxCell id="ch1ULrI9wvM1NAQLew_m-114" value="" style="endArrow=classic;html=1;rounded=0;fontFamily=Helvetica;fontSize=36;strokeColor=#000000;strokeWidth=7;" parent="1" edge="1">
          <mxGeometry relative="1" as="geometry">
            <mxPoint x="-1940" y="1025" as="sourcePoint" />
            <mxPoint x="-1790" y="1025" as="targetPoint" />
          </mxGeometry>
        </mxCell>
        <mxCell id="ch1ULrI9wvM1NAQLew_m-116" value="" style="endArrow=classic;html=1;rounded=0;fontFamily=Helvetica;fontSize=36;strokeColor=#000000;strokeWidth=7;" parent="1" edge="1">
          <mxGeometry relative="1" as="geometry">
            <mxPoint x="-1480" y="1050.5" as="sourcePoint" />
            <mxPoint x="-1260" y="1050" as="targetPoint" />
          </mxGeometry>
        </mxCell>
        <mxCell id="ch1ULrI9wvM1NAQLew_m-117" value="Writeback&lt;br&gt;ROB values" style="edgeLabel;html=1;align=center;verticalAlign=middle;resizable=0;points=[];fontSize=38;labelBackgroundColor=none;" parent="1" connectable="0" vertex="1">
          <mxGeometry x="-2100" y="1930" as="geometry">
            <mxPoint x="739" y="-951" as="offset" />
          </mxGeometry>
        </mxCell>
        <mxCell id="ch1ULrI9wvM1NAQLew_m-120" value="" style="endArrow=classic;html=1;rounded=0;fontFamily=Helvetica;fontSize=36;exitX=0.995;exitY=0.524;exitDx=0;exitDy=0;exitPerimeter=0;strokeColor=#000000;strokeWidth=7;" parent="1" edge="1">
          <mxGeometry relative="1" as="geometry">
            <mxPoint x="-2189.6" y="1380" as="sourcePoint" />
            <mxPoint x="-2190" y="1180" as="targetPoint" />
          </mxGeometry>
        </mxCell>
        <mxCell id="ch1ULrI9wvM1NAQLew_m-121" value="Text" style="text;html=1;align=center;verticalAlign=middle;resizable=0;points=[];autosize=1;strokeColor=none;fillColor=none;" parent="1" vertex="1">
          <mxGeometry x="-1775" y="768" width="50" height="30" as="geometry" />
        </mxCell>
        <mxCell id="ch1ULrI9wvM1NAQLew_m-126" value="Renamed &lt;br&gt;operand &lt;br&gt;Identifier" style="edgeLabel;html=1;align=center;verticalAlign=middle;resizable=0;points=[];fontSize=38;labelBackgroundColor=none;" parent="1" connectable="0" vertex="1">
          <mxGeometry x="-2500" y="2440" as="geometry">
            <mxPoint x="739" y="-951" as="offset" />
          </mxGeometry>
        </mxCell>
        <mxCell id="ch1ULrI9wvM1NAQLew_m-130" value="&lt;span style=&quot;font-size: 56px;&quot;&gt;Issue&lt;br&gt;Select Logic&lt;/span&gt;" style="ellipse;shape=cloud;whiteSpace=wrap;html=1;" parent="1" vertex="1">
          <mxGeometry x="-90" y="1490" width="610" height="440" as="geometry" />
        </mxCell>
        <mxCell id="ch1ULrI9wvM1NAQLew_m-137" value="&lt;div style=&quot;&quot;&gt;&amp;nbsp; &amp;nbsp;&lt;/div&gt;&lt;div style=&quot;&quot;&gt;&lt;br&gt;&lt;/div&gt;&lt;div style=&quot;&quot;&gt;&lt;br&gt;&lt;/div&gt;&lt;div style=&quot;&quot;&gt;&lt;br&gt;&lt;/div&gt;&lt;div style=&quot;&quot;&gt;&lt;br&gt;&lt;/div&gt;&lt;div style=&quot;&quot;&gt;&lt;br&gt;&lt;/div&gt;&lt;div style=&quot;&quot;&gt;&lt;br&gt;&lt;/div&gt;&lt;div style=&quot;&quot;&gt;&lt;br&gt;&lt;/div&gt;&lt;div style=&quot;&quot;&gt;&lt;br&gt;&lt;/div&gt;&lt;div style=&quot;&quot;&gt;&lt;br&gt;&lt;/div&gt;&lt;div style=&quot;&quot;&gt;&lt;br&gt;&lt;/div&gt;&lt;div style=&quot;&quot;&gt;&lt;br&gt;&lt;/div&gt;&lt;div style=&quot;&quot;&gt;&lt;br&gt;&lt;/div&gt;&lt;div style=&quot;&quot;&gt;&lt;br&gt;&lt;/div&gt;&lt;div style=&quot;&quot;&gt;&lt;br&gt;&lt;/div&gt;&lt;div style=&quot;&quot;&gt;&lt;br&gt;&lt;/div&gt;&lt;div style=&quot;&quot;&gt;&lt;br&gt;&lt;/div&gt;&lt;div style=&quot;&quot;&gt;&lt;br&gt;&lt;/div&gt;&lt;div style=&quot;&quot;&gt;&lt;br&gt;&lt;/div&gt;&lt;div style=&quot;&quot;&gt;&lt;br&gt;&lt;/div&gt;&lt;div style=&quot;&quot;&gt;&lt;br&gt;&lt;/div&gt;&lt;div style=&quot;&quot;&gt;&lt;br&gt;&lt;/div&gt;&lt;div style=&quot;&quot;&gt;&lt;br&gt;&lt;/div&gt;&lt;div style=&quot;&quot;&gt;&lt;br&gt;&lt;/div&gt;&lt;div style=&quot;&quot;&gt;Execute Stage&lt;/div&gt;" style="verticalLabelPosition=middle;verticalAlign=middle;html=1;shape=mxgraph.basic.rect;fillColor2=none;strokeWidth=1;size=20;indent=5;fontFamily=Helvetica;fontSize=36;labelPosition=center;align=center;whiteSpace=wrap;" parent="1" vertex="1">
          <mxGeometry x="1030" y="1430" width="670" height="950" as="geometry" />
        </mxCell>
        <mxCell id="ch1ULrI9wvM1NAQLew_m-138" value="Functional Unit 2" style="shape=hexagon;perimeter=hexagonPerimeter2;whiteSpace=wrap;html=1;fixedSize=1;labelBackgroundColor=none;fontSize=38;" parent="1" vertex="1">
          <mxGeometry x="1140" y="1812" width="430" height="226" as="geometry" />
        </mxCell>
        <mxCell id="ch1ULrI9wvM1NAQLew_m-139" value="&lt;br&gt;Functional Unit 3&lt;div&gt;&lt;br&gt;&lt;/div&gt;" style="shape=hexagon;perimeter=hexagonPerimeter2;whiteSpace=wrap;html=1;fixedSize=1;labelBackgroundColor=none;fontSize=38;" parent="1" vertex="1">
          <mxGeometry x="1140" y="2089" width="440" height="191" as="geometry" />
        </mxCell>
        <mxCell id="ch1ULrI9wvM1NAQLew_m-140" value="Functional Unit 1" style="shape=hexagon;perimeter=hexagonPerimeter2;whiteSpace=wrap;html=1;fixedSize=1;labelBackgroundColor=none;fontSize=38;" parent="1" vertex="1">
          <mxGeometry x="1130" y="1535" width="430" height="226" as="geometry" />
        </mxCell>
        <mxCell id="ch1ULrI9wvM1NAQLew_m-147" value="" style="endArrow=classic;startArrow=classic;html=1;rounded=0;strokeColor=#000000;strokeWidth=7;fontSize=40;jumpStyle=sharp;" parent="1" edge="1">
          <mxGeometry width="50" height="50" relative="1" as="geometry">
            <mxPoint x="140" y="1492" as="sourcePoint" />
            <mxPoint x="1310" y="1390" as="targetPoint" />
            <Array as="points">
              <mxPoint x="140" y="970" />
              <mxPoint x="1310" y="970" />
            </Array>
          </mxGeometry>
        </mxCell>
        <mxCell id="ch1ULrI9wvM1NAQLew_m-152" value="" style="endArrow=classic;startArrow=classic;html=1;rounded=0;strokeColor=#000000;strokeWidth=7;fontSize=40;jumpStyle=sharp;" parent="1" source="ch1ULrI9wvM1NAQLew_m-108" edge="1">
          <mxGeometry width="50" height="50" relative="1" as="geometry">
            <mxPoint x="-1025" y="1383" as="sourcePoint" />
            <mxPoint x="-1025" y="1060" as="targetPoint" />
          </mxGeometry>
        </mxCell>
        <mxCell id="ch1ULrI9wvM1NAQLew_m-153" value="Read Values from ROB&lt;div&gt;==&amp;gt; Stall if not ready&lt;/div&gt;" style="edgeLabel;html=1;align=center;verticalAlign=middle;resizable=0;points=[];fontSize=40;labelBackgroundColor=none;" parent="ch1ULrI9wvM1NAQLew_m-152" connectable="0" vertex="1">
          <mxGeometry x="0.0771" y="-2" relative="1" as="geometry">
            <mxPoint x="823" y="-252" as="offset" />
          </mxGeometry>
        </mxCell>
        <mxCell id="ch1ULrI9wvM1NAQLew_m-155" value="" style="endArrow=classic;html=1;rounded=0;fontFamily=Helvetica;fontSize=36;strokeColor=#000000;strokeWidth=7;" parent="1" edge="1">
          <mxGeometry relative="1" as="geometry">
            <mxPoint x="-490" y="2000" as="sourcePoint" />
            <mxPoint x="960" y="2000" as="targetPoint" />
          </mxGeometry>
        </mxCell>
        <mxCell id="ch1ULrI9wvM1NAQLew_m-156" value="" style="endArrow=classic;html=1;rounded=0;fontFamily=Helvetica;fontSize=36;exitX=0.995;exitY=0.524;exitDx=0;exitDy=0;exitPerimeter=0;strokeColor=#000000;strokeWidth=7;" parent="1" edge="1">
          <mxGeometry relative="1" as="geometry">
            <mxPoint x="-2710" y="1960" as="sourcePoint" />
            <mxPoint x="-1420" y="1960" as="targetPoint" />
          </mxGeometry>
        </mxCell>
        <mxCell id="ch1ULrI9wvM1NAQLew_m-157" value="Other Information" style="edgeLabel;html=1;align=center;verticalAlign=middle;resizable=0;points=[];fontSize=38;labelBackgroundColor=none;" parent="1" connectable="0" vertex="1">
          <mxGeometry x="-2950" y="2960" as="geometry">
            <mxPoint x="739" y="-951" as="offset" />
          </mxGeometry>
        </mxCell>
        <mxCell id="ch1ULrI9wvM1NAQLew_m-161" value="&lt;font style=&quot;font-size: 38px;&quot;&gt;P&lt;br&gt;i&lt;br&gt;p&lt;br&gt;e&lt;br&gt;l&lt;br&gt;i&lt;br&gt;n&lt;br&gt;e&lt;br&gt;&lt;br&gt;B&lt;br&gt;u&lt;br&gt;f&lt;br&gt;f&lt;br&gt;e&lt;br&gt;r&lt;br&gt;&lt;/font&gt;" style="rounded=0;whiteSpace=wrap;html=1;fillColor=#f8cecc;strokeColor=#b85450;" parent="1" vertex="1">
          <mxGeometry x="2040" y="1380" width="120" height="990" as="geometry" />
        </mxCell>
        <mxCell id="ch1ULrI9wvM1NAQLew_m-164" value="&lt;span style=&quot;font-size: 56px;&quot;&gt;Complete&amp;nbsp;&lt;br&gt;Logic&lt;/span&gt;" style="ellipse;shape=cloud;whiteSpace=wrap;html=1;" parent="1" vertex="1">
          <mxGeometry x="3440" y="1599" width="800" height="532" as="geometry" />
        </mxCell>
        <mxCell id="ch1ULrI9wvM1NAQLew_m-165" value="" style="endArrow=classic;html=1;rounded=0;fontFamily=Helvetica;fontSize=36;strokeColor=#000000;strokeWidth=7;" parent="1" edge="1">
          <mxGeometry relative="1" as="geometry">
            <mxPoint x="2460" y="1341" as="sourcePoint" />
            <mxPoint x="3530" y="1630" as="targetPoint" />
            <Array as="points">
              <mxPoint x="3530" y="1341" />
            </Array>
          </mxGeometry>
        </mxCell>
        <mxCell id="ch1ULrI9wvM1NAQLew_m-108" value="&lt;div style=&quot;&quot;&gt;&lt;span style=&quot;font-size: 56px;&quot;&gt;Architectural Register File&lt;br&gt;(ARF)&lt;/span&gt;&lt;/div&gt;" style="verticalLabelPosition=middle;verticalAlign=middle;html=1;shape=mxgraph.basic.rect;fillColor2=none;strokeWidth=1;size=20;indent=5;fontFamily=Helvetica;fontSize=36;labelPosition=center;align=center;whiteSpace=wrap;" parent="1" vertex="1">
          <mxGeometry x="-1240" y="910" width="430" height="220" as="geometry" />
        </mxCell>
        <mxCell id="ch1ULrI9wvM1NAQLew_m-172" value="" style="endArrow=classic;html=1;rounded=0;fontFamily=Helvetica;fontSize=36;strokeColor=#000000;strokeWidth=7;" parent="1" edge="1">
          <mxGeometry relative="1" as="geometry">
            <mxPoint x="3850" y="1610" as="sourcePoint" />
            <mxPoint x="-2182" y="880" as="targetPoint" />
            <Array as="points">
              <mxPoint x="3850" y="680" />
              <mxPoint x="-2182" y="670" />
            </Array>
          </mxGeometry>
        </mxCell>
        <mxCell id="ch1ULrI9wvM1NAQLew_m-173" value="" style="endArrow=classic;html=1;rounded=0;fontFamily=Helvetica;fontSize=36;strokeColor=#000000;strokeWidth=7;" parent="1" edge="1">
          <mxGeometry relative="1" as="geometry">
            <mxPoint x="1720" y="1880" as="sourcePoint" />
            <mxPoint x="1980" y="1881" as="targetPoint" />
          </mxGeometry>
        </mxCell>
        <mxCell id="ch1ULrI9wvM1NAQLew_m-178" value="posedge CC: send info&lt;br&gt;During CC: Logic process" style="edgeLabel;html=1;align=center;verticalAlign=middle;resizable=0;points=[];fontSize=38;labelBackgroundColor=none;" parent="1" connectable="0" vertex="1">
          <mxGeometry x="-1030" y="2610" as="geometry">
            <mxPoint x="739" y="-951" as="offset" />
          </mxGeometry>
        </mxCell>
        <mxCell id="ch1ULrI9wvM1NAQLew_m-182" value="Instruction 1 (When selected)" style="edgeLabel;html=1;align=center;verticalAlign=middle;resizable=0;points=[];fontSize=38;labelBackgroundColor=none;" parent="1" connectable="0" vertex="1">
          <mxGeometry x="-670" y="2910" as="geometry">
            <mxPoint x="739" y="-951" as="offset" />
          </mxGeometry>
        </mxCell>
        <mxCell id="ch1ULrI9wvM1NAQLew_m-183" value="Instruction 2 (When selected)" style="edgeLabel;html=1;align=center;verticalAlign=middle;resizable=0;points=[];fontSize=38;labelBackgroundColor=none;" parent="1" connectable="0" vertex="1">
          <mxGeometry x="-670" y="2980" as="geometry">
            <mxPoint x="739" y="-951" as="offset" />
          </mxGeometry>
        </mxCell>
        <mxCell id="ch1ULrI9wvM1NAQLew_m-184" value="&lt;div&gt;Ready Signal: Execution Unit is ready? or need to stall?&lt;div&gt;&lt;br&gt;&lt;/div&gt;&lt;/div&gt;" style="edgeLabel;html=1;align=center;verticalAlign=middle;resizable=0;points=[];fontSize=38;labelBackgroundColor=none;" parent="1" connectable="0" vertex="1">
          <mxGeometry x="-10" y="1990" as="geometry">
            <mxPoint x="739" y="-951" as="offset" />
          </mxGeometry>
        </mxCell>
        <mxCell id="ch1ULrI9wvM1NAQLew_m-185" value="" style="endArrow=classic;html=1;rounded=0;fontFamily=Helvetica;fontSize=36;strokeColor=#000000;strokeWidth=7;" parent="1" edge="1">
          <mxGeometry relative="1" as="geometry">
            <mxPoint x="-490" y="2060" as="sourcePoint" />
            <mxPoint x="950" y="2060" as="targetPoint" />
          </mxGeometry>
        </mxCell>
        <mxCell id="ch1ULrI9wvM1NAQLew_m-188" value="" style="endArrow=classic;startArrow=classic;html=1;rounded=0;strokeColor=#000000;strokeWidth=7;fontSize=40;jumpStyle=sharp;" parent="1" edge="1">
          <mxGeometry width="50" height="50" relative="1" as="geometry">
            <mxPoint x="-2100" y="880" as="sourcePoint" />
            <mxPoint x="70" y="1490" as="targetPoint" />
            <Array as="points">
              <mxPoint x="-2100" y="760" />
              <mxPoint x="70" y="760" />
            </Array>
          </mxGeometry>
        </mxCell>
        <mxCell id="ch1ULrI9wvM1NAQLew_m-191" value="" style="endArrow=classic;html=1;rounded=0;fontFamily=Helvetica;fontSize=36;strokeColor=#000000;strokeWidth=7;" parent="1" edge="1">
          <mxGeometry relative="1" as="geometry">
            <mxPoint x="-1010" y="1180" as="sourcePoint" />
            <mxPoint x="-1010" y="1400" as="targetPoint" />
          </mxGeometry>
        </mxCell>
        <mxCell id="ch1ULrI9wvM1NAQLew_m-192" value="If safe: &lt;br&gt;Read register data" style="edgeLabel;html=1;align=center;verticalAlign=middle;resizable=0;points=[];fontSize=38;labelBackgroundColor=none;" parent="1" connectable="0" vertex="1">
          <mxGeometry x="-1550" y="2240" as="geometry">
            <mxPoint x="739" y="-951" as="offset" />
          </mxGeometry>
        </mxCell>
        <mxCell id="ch1ULrI9wvM1NAQLew_m-193" value="&lt;span style=&quot;font-size: 56px;&quot;&gt;Load/Store Unit&lt;/span&gt;" style="verticalLabelPosition=middle;verticalAlign=middle;html=1;shape=mxgraph.basic.rect;fillColor2=none;strokeWidth=1;size=20;indent=5;fontFamily=Helvetica;fontSize=36;labelPosition=center;align=center;whiteSpace=wrap;" parent="1" vertex="1">
          <mxGeometry x="2500" y="1840" width="430" height="380" as="geometry" />
        </mxCell>
        <mxCell id="ch1ULrI9wvM1NAQLew_m-194" value="" style="shape=trapezoid;perimeter=trapezoidPerimeter;whiteSpace=wrap;html=1;fixedSize=1;rotation=-90;size=67.5;" parent="1" vertex="1">
          <mxGeometry x="2270" y="1380" width="260" height="70" as="geometry" />
        </mxCell>
        <mxCell id="ch1ULrI9wvM1NAQLew_m-196" value="&lt;font style=&quot;font-size: 38px;&quot;&gt;P&lt;br&gt;i&lt;br&gt;p&lt;br&gt;e&lt;br&gt;l&lt;br&gt;i&lt;br&gt;n&lt;br&gt;e&lt;br&gt;&lt;br&gt;B&lt;br&gt;u&lt;br&gt;f&lt;br&gt;f&lt;br&gt;e&lt;br&gt;r&lt;br&gt;&lt;/font&gt;" style="rounded=0;whiteSpace=wrap;html=1;fillColor=#f8cecc;strokeColor=#b85450;" parent="1" vertex="1">
          <mxGeometry x="3110" y="1370" width="120" height="990" as="geometry" />
        </mxCell>
        <mxCell id="ch1ULrI9wvM1NAQLew_m-197" value="&lt;div&gt;&lt;div&gt;Results&lt;/div&gt;&lt;/div&gt;" style="edgeLabel;html=1;align=center;verticalAlign=middle;resizable=0;points=[];fontSize=38;labelBackgroundColor=none;" parent="1" connectable="0" vertex="1">
          <mxGeometry x="1110" y="2780" as="geometry">
            <mxPoint x="739" y="-951" as="offset" />
          </mxGeometry>
        </mxCell>
        <mxCell id="ch1ULrI9wvM1NAQLew_m-202" value="" style="endArrow=classic;html=1;rounded=0;fontFamily=Helvetica;fontSize=36;strokeColor=#000000;strokeWidth=7;" parent="1" edge="1">
          <mxGeometry relative="1" as="geometry">
            <mxPoint x="2450" y="1450" as="sourcePoint" />
            <mxPoint x="2720" y="1810" as="targetPoint" />
            <Array as="points">
              <mxPoint x="2720" y="1450" />
            </Array>
          </mxGeometry>
        </mxCell>
        <mxCell id="ch1ULrI9wvM1NAQLew_m-206" value="&lt;div&gt;Memory&lt;/div&gt;Addr" style="edgeLabel;html=1;align=center;verticalAlign=middle;resizable=0;points=[];fontSize=38;labelBackgroundColor=none;" parent="1" connectable="0" vertex="1">
          <mxGeometry x="2070" y="2610" as="geometry">
            <mxPoint x="739" y="-951" as="offset" />
          </mxGeometry>
        </mxCell>
        <mxCell id="ch1ULrI9wvM1NAQLew_m-207" value="" style="endArrow=classic;html=1;rounded=0;fontFamily=Helvetica;fontSize=36;strokeColor=#000000;strokeWidth=7;" parent="1" edge="1">
          <mxGeometry relative="1" as="geometry">
            <mxPoint x="2180" y="1407.5" as="sourcePoint" />
            <mxPoint x="2320" y="1409" as="targetPoint" />
          </mxGeometry>
        </mxCell>
        <mxCell id="ch1ULrI9wvM1NAQLew_m-208" value="" style="endArrow=classic;html=1;rounded=0;fontFamily=Helvetica;fontSize=36;strokeColor=#000000;strokeWidth=7;" parent="1" edge="1">
          <mxGeometry relative="1" as="geometry">
            <mxPoint x="2180" y="1620" as="sourcePoint" />
            <mxPoint x="2390" y="1550" as="targetPoint" />
            <Array as="points">
              <mxPoint x="2390" y="1620" />
            </Array>
          </mxGeometry>
        </mxCell>
        <mxCell id="ch1ULrI9wvM1NAQLew_m-210" value="Is Load/Store?&lt;div&gt;&lt;/div&gt;" style="edgeLabel;html=1;align=center;verticalAlign=middle;resizable=0;points=[];fontSize=38;labelBackgroundColor=none;" parent="1" connectable="0" vertex="1">
          <mxGeometry x="1590" y="2620" as="geometry">
            <mxPoint x="739" y="-951" as="offset" />
          </mxGeometry>
        </mxCell>
        <mxCell id="ch1ULrI9wvM1NAQLew_m-211" value="&lt;div&gt;&lt;div&gt;Results&lt;/div&gt;&lt;/div&gt;" style="edgeLabel;html=1;align=center;verticalAlign=middle;resizable=0;points=[];fontSize=38;labelBackgroundColor=none;" parent="1" connectable="0" vertex="1">
          <mxGeometry x="1510" y="2320" as="geometry">
            <mxPoint x="739" y="-951" as="offset" />
          </mxGeometry>
        </mxCell>
        <mxCell id="ch1ULrI9wvM1NAQLew_m-213" value="" style="endArrow=classic;html=1;rounded=0;fontFamily=Helvetica;fontSize=36;strokeColor=#000000;strokeWidth=7;" parent="1" edge="1">
          <mxGeometry relative="1" as="geometry">
            <mxPoint x="-1990" y="2170" as="sourcePoint" />
            <mxPoint x="-1420" y="2520" as="targetPoint" />
            <Array as="points">
              <mxPoint x="-1740" y="2170" />
              <mxPoint x="-1740" y="2520" />
            </Array>
          </mxGeometry>
        </mxCell>
        <mxCell id="ch1ULrI9wvM1NAQLew_m-214" value="" style="endArrow=classic;startArrow=classic;html=1;rounded=0;strokeColor=#000000;strokeWidth=7;fontSize=40;jumpStyle=sharp;" parent="1" edge="1">
          <mxGeometry width="50" height="50" relative="1" as="geometry">
            <mxPoint x="-470" y="2527.5" as="sourcePoint" />
            <mxPoint x="2460" y="2010" as="targetPoint" />
            <Array as="points">
              <mxPoint x="2220" y="2530" />
              <mxPoint x="2220" y="2010" />
            </Array>
          </mxGeometry>
        </mxCell>
        <mxCell id="ch1ULrI9wvM1NAQLew_m-215" value="Instruction (When selected)&lt;div&gt;&lt;br&gt;&lt;/div&gt;" style="edgeLabel;html=1;align=center;verticalAlign=middle;resizable=0;points=[];fontSize=38;labelBackgroundColor=none;" parent="1" connectable="0" vertex="1">
          <mxGeometry x="10" y="3550" as="geometry">
            <mxPoint x="739" y="-951" as="offset" />
          </mxGeometry>
        </mxCell>
        <mxCell id="ch1ULrI9wvM1NAQLew_m-223" value="&lt;span style=&quot;font-size: 56px;&quot;&gt;Is Load/Store?&lt;/span&gt;" style="ellipse;shape=cloud;whiteSpace=wrap;html=1;" parent="1" vertex="1">
          <mxGeometry x="-2460" y="2050" width="460" height="320" as="geometry" />
        </mxCell>
        <mxCell id="ch1ULrI9wvM1NAQLew_m-224" value="" style="endArrow=classic;html=1;rounded=0;fontFamily=Helvetica;fontSize=36;strokeWidth=7;" parent="1" edge="1">
          <mxGeometry relative="1" as="geometry">
            <mxPoint x="-2730" y="2160" as="sourcePoint" />
            <mxPoint x="-2510" y="2160" as="targetPoint" />
            <Array as="points">
              <mxPoint x="-2710" y="2160" />
            </Array>
          </mxGeometry>
        </mxCell>
        <mxCell id="ch1ULrI9wvM1NAQLew_m-227" value="&lt;font style=&quot;font-size: 56px;&quot;&gt;Data Memory&lt;/font&gt;" style="verticalLabelPosition=middle;verticalAlign=middle;html=1;shape=mxgraph.basic.rect;fillColor2=none;strokeWidth=1;size=20;indent=0;fontFamily=Helvetica;fontSize=21;labelPosition=center;align=center;whiteSpace=wrap;fillColor=#e1d5e7;strokeColor=#9673a6;" parent="1" vertex="1">
          <mxGeometry x="1310" y="3120" width="2770" height="150" as="geometry" />
        </mxCell>
        <mxCell id="ch1ULrI9wvM1NAQLew_m-228" value="&lt;font style=&quot;font-size: 56px;&quot;&gt;Cache&lt;/font&gt;" style="verticalLabelPosition=middle;verticalAlign=middle;html=1;shape=mxgraph.basic.rect;fillColor2=none;strokeWidth=1;size=20;indent=0;fontFamily=Helvetica;fontSize=21;labelPosition=center;align=center;whiteSpace=wrap;fillColor=#d5e8d4;strokeColor=#82b366;" parent="1" vertex="1">
          <mxGeometry x="1310" y="2750" width="2770" height="150" as="geometry" />
        </mxCell>
        <mxCell id="ch1ULrI9wvM1NAQLew_m-233" value="" style="endArrow=classic;startArrow=classic;html=1;rounded=0;strokeColor=#000000;strokeWidth=7;fontSize=40;jumpStyle=sharp;" parent="1" edge="1">
          <mxGeometry width="50" height="50" relative="1" as="geometry">
            <mxPoint x="2710" y="2270" as="sourcePoint" />
            <mxPoint x="2710" y="2680" as="targetPoint" />
            <Array as="points" />
          </mxGeometry>
        </mxCell>
        <mxCell id="ch1ULrI9wvM1NAQLew_m-235" value="" style="endArrow=classic;startArrow=classic;html=1;rounded=0;strokeColor=#000000;strokeWidth=7;fontSize=40;jumpStyle=sharp;" parent="1" edge="1">
          <mxGeometry width="50" height="50" relative="1" as="geometry">
            <mxPoint x="2713" y="2940" as="sourcePoint" />
            <mxPoint x="2713" y="3100" as="targetPoint" />
            <Array as="points" />
          </mxGeometry>
        </mxCell>
        <mxCell id="ch1ULrI9wvM1NAQLew_m-236" value="&lt;div&gt;&lt;div&gt;Other results&lt;/div&gt;&lt;/div&gt;" style="edgeLabel;html=1;align=center;verticalAlign=middle;resizable=0;points=[];fontSize=38;labelBackgroundColor=none;" parent="1" connectable="0" vertex="1">
          <mxGeometry x="1940" y="2250" as="geometry">
            <mxPoint x="739" y="-951" as="offset" />
          </mxGeometry>
        </mxCell>
        <mxCell id="ch1ULrI9wvM1NAQLew_m-237" value="" style="endArrow=classic;html=1;rounded=0;fontFamily=Helvetica;fontSize=36;strokeColor=#000000;strokeWidth=7;" parent="1" edge="1">
          <mxGeometry relative="1" as="geometry">
            <mxPoint x="3290" y="1873" as="sourcePoint" />
            <mxPoint x="3430" y="1874" as="targetPoint" />
          </mxGeometry>
        </mxCell>
        <mxCell id="ch1ULrI9wvM1NAQLew_m-238" value="" style="endArrow=classic;html=1;rounded=0;fontFamily=Helvetica;fontSize=36;strokeColor=#000000;strokeWidth=7;" parent="1" edge="1">
          <mxGeometry relative="1" as="geometry">
            <mxPoint x="2960" y="2010" as="sourcePoint" />
            <mxPoint x="3100" y="2011" as="targetPoint" />
          </mxGeometry>
        </mxCell>
        <mxCell id="ch1ULrI9wvM1NAQLew_m-239" value="Info &lt;br&gt;to &lt;br&gt;ROB&lt;div&gt;&lt;/div&gt;" style="edgeLabel;html=1;align=center;verticalAlign=middle;resizable=0;points=[];fontSize=38;labelBackgroundColor=none;" parent="1" connectable="0" vertex="1">
          <mxGeometry x="2290" y="2850" as="geometry">
            <mxPoint x="739" y="-951" as="offset" />
          </mxGeometry>
        </mxCell>
        <mxCell id="xMuEIvFzE1x-ehu9Wc51-1" value="" style="endArrow=classic;html=1;rounded=0;fontFamily=Helvetica;fontSize=36;strokeColor=#000000;strokeWidth=7;" parent="1" edge="1">
          <mxGeometry relative="1" as="geometry">
            <mxPoint x="-500" y="1730" as="sourcePoint" />
            <mxPoint x="-130" y="1730" as="targetPoint" />
          </mxGeometry>
        </mxCell>
        <mxCell id="xMuEIvFzE1x-ehu9Wc51-2" value="" style="endArrow=classic;html=1;rounded=0;fontFamily=Helvetica;fontSize=36;strokeColor=#000000;strokeWidth=7;" parent="1" edge="1">
          <mxGeometry relative="1" as="geometry">
            <mxPoint x="-200" y="1765.59" as="sourcePoint" />
            <mxPoint x="-490" y="1765.82" as="targetPoint" />
          </mxGeometry>
        </mxCell>
        <mxCell id="xMuEIvFzE1x-ehu9Wc51-3" value="Next posedge:&lt;br&gt;IQ receive result signals&lt;div&gt;+ Send instructions and data&amp;nbsp;&lt;/div&gt;" style="edgeLabel;html=1;align=center;verticalAlign=middle;resizable=0;points=[];fontSize=38;labelBackgroundColor=none;" parent="1" connectable="0" vertex="1">
          <mxGeometry x="-990" y="2790" as="geometry">
            <mxPoint x="739" y="-951" as="offset" />
          </mxGeometry>
        </mxCell>
      </root>
    </mxGraphModel>
  </diagram>
</mxfile>
